# Vectary OBJ Export units=mm
mtllib Project Name.mtl
o 000_Box
g Box
usemtl Box material_2e065940-6572-46b9-99f1-dbde688bc938
v 37.919 1.583 78.562
v -12.081 1.583 28.562
v 37.919 1.583 28.562
v -12.081 1.583 78.562
v -62.081 1.583 28.562
v -62.081 1.583 78.562
v -12.081 1.583 -21.438
v 37.919 1.583 -21.438
v -62.081 1.583 -21.438
v 0.419 51.583 28.562
v 0.419 51.583 -21.438
v 0.419 51.583 78.562
v 62.919 101.583 28.562
v 62.919 101.583 -21.438
v 62.919 101.583 78.562
v 50.419 51.583 78.562
v 100.419 51.583 78.562
v 112.919 101.583 78.562
v 162.919 101.583 78.562
v 50.419 51.583 -21.438
v 100.419 51.583 -21.438
v 112.919 101.583 -21.438
v 162.919 101.583 -21.438
v 100.419 51.583 28.562
v 162.919 101.583 28.562
v 112.919 101.583 28.562
vn 0.33101 -0.94363 -0.00000
vn 0.00000 -1.00000 -0.00000
vn 0.33101 -0.94363 -0.00000
vn 0.00000 -1.00000 -0.00000
vn 0.00000 -1.00000 -0.00000
vn 0.00000 -1.00000 -0.00000
vn 0.00000 -1.00000 -0.00000
vn 0.00000 -1.00000 -0.00000
vn 0.33101 -0.94363 -0.00000
vn 0.00000 -1.00000 -0.00000
vn 0.33101 -0.94363 -0.00000
vn 0.00000 -1.00000 -0.00000
vn 0.00000 -1.00000 -0.00000
vn 0.00000 -1.00000 -0.00000
vn 0.00000 -1.00000 -0.00000
vn 0.00000 -1.00000 -0.00000
vn -0.62470 0.78087 0.00000
vn -0.62470 0.78087 0.00000
vn -0.62470 0.78087 0.00000
vn -0.62470 0.78087 0.00000
vn -0.62470 0.78087 0.00000
vn -0.62470 0.78087 0.00000
vn -0.62470 0.78087 0.00000
vn -0.62470 0.78087 0.00000
vn -0.62470 0.78087 0.00000
vn -0.33101 0.94363 0.00000
vn -0.33101 0.94363 0.00000
vn -0.62470 0.78087 0.00000
vn -0.62470 0.78087 0.00000
vn -0.33101 0.94363 0.00000
vn -0.33101 0.94363 0.00000
vn -0.62470 0.78087 0.00000
vn 0.00000 -0.00000 1.00000
vn 0.00000 -0.00000 1.00000
vn 0.00000 -0.00000 1.00000
vn 0.00000 -0.00000 1.00000
vn 0.00000 -0.00000 1.00000
vn 0.00000 -0.00000 1.00000
vn 0.00000 -0.00000 1.00000
vn 0.00000 -0.00000 1.00000
vn 0.00000 -0.00000 1.00000
vn 0.00000 -0.00000 1.00000
vn 0.00000 -0.00000 1.00000
vn 0.00000 -0.00000 1.00000
vn 0.00000 -0.00000 1.00000
vn 0.00000 -0.00000 1.00000
vn 0.00000 -0.00000 1.00000
vn 0.00000 -0.00000 1.00000
vn 0.00000 0.00000 -1.00000
vn 0.00000 0.00000 -1.00000
vn 0.00000 0.00000 -1.00000
vn 0.00000 0.00000 -1.00000
vn 0.00000 0.00000 -1.00000
vn 0.00000 0.00000 -1.00000
vn 0.00000 0.00000 -1.00000
vn 0.00000 0.00000 -1.00000
vn 0.00000 0.00000 -1.00000
vn 0.00000 0.00000 -1.00000
vn 0.00000 0.00000 -1.00000
vn 0.00000 0.00000 -1.00000
vn 0.00000 0.00000 -1.00000
vn 0.00000 0.00000 -1.00000
vn 0.00000 0.00000 -1.00000
vn 0.00000 0.00000 -1.00000
vn 0.33101 -0.94363 -0.00000
vn 0.62470 -0.78087 -0.00000
vn 0.62470 -0.78087 -0.00000
vn 0.33101 -0.94363 -0.00000
vn 0.33101 -0.94363 -0.00000
vn 0.62470 -0.78087 -0.00000
vn 0.62470 -0.78087 -0.00000
vn 0.33101 -0.94363 -0.00000
vn 0.62470 -0.78087 -0.00000
vn 0.62470 -0.78087 -0.00000
vn 0.62470 -0.78087 -0.00000
vn 0.62470 -0.78087 -0.00000
vn 0.62470 -0.78087 -0.00000
vn 0.62470 -0.78087 -0.00000
vn 0.62470 -0.78087 -0.00000
vn 0.62470 -0.78087 -0.00000
vn -0.33101 0.94363 0.00000
vn 0.00000 1.00000 0.00000
vn -0.33101 0.94363 0.00000
vn 0.00000 1.00000 0.00000
vn 0.00000 1.00000 0.00000
vn 0.00000 1.00000 0.00000
vn 0.00000 1.00000 0.00000
vn 0.00000 1.00000 0.00000
vn -0.33101 0.94363 0.00000
vn 0.00000 1.00000 0.00000
vn -0.33101 0.94363 0.00000
vn 0.00000 1.00000 0.00000
vn 0.00000 1.00000 0.00000
vn 0.00000 1.00000 0.00000
vn 0.00000 1.00000 0.00000
vn 0.00000 1.00000 0.00000
f 3//3 1//1 4//4 2//2 
f 2//7 4//5 6//8 5//6 
f 8//11 3//9 2//12 7//10 
f 7//15 2//13 5//16 9//14 
f 11//19 9//17 5//20 10//18 
f 10//23 5//21 6//24 12//22 
f 14//27 11//25 10//28 13//26 
f 13//31 10//29 12//32 15//30 
f 12//35 6//33 4//36 16//34 
f 16//39 4//37 1//40 17//38 
f 15//43 12//41 16//44 18//42 
f 18//47 16//45 17//48 19//46 
f 21//51 8//49 7//52 20//50 
f 20//55 7//53 9//56 11//54 
f 23//59 21//57 20//60 22//58 
f 22//63 20//61 11//64 14//62 
f 17//67 1//65 3//68 24//66 
f 24//71 3//69 8//72 21//70 
f 19//75 17//73 24//76 25//74 
f 25//79 24//77 21//80 23//78 
f 13//83 15//81 18//84 26//82 
f 26//87 18//85 19//88 25//86 
f 14//91 13//89 26//92 22//90 
f 22//95 26//93 25//96 23//94 
